<svg viewBox="0 0 400 120" xmlns="http://www.w3.org/2000/svg">
  <defs>
    <linearGradient id="textGradient" x1="0%" y1="0%" x2="100%" y2="100%">
      <stop offset="0%" stop-color="#14f1a7" />
      <stop offset="100%" stop-color="#0095dd" />
    </linearGradient>
    <filter id="subtleGlow" x="-10%" y="-10%" width="120%" height="120%">
      <feGaussianBlur stdDeviation="1" result="blur" />
      <feComposite in="SourceGraphic" in2="blur" operator="over" />
    </filter>
  </defs>
  
  <!-- Main Text -->
  <g filter="url(#subtleGlow)">
    <text x="150" y="70" font-family="'Courier New', monospace" font-size="42" font-weight="bold" fill="url(#textGradient)">RooT:_</text>
  </g>
  
  <!-- Realistic Root System with Vegetation (Left Side) -->
  <g>
    <!-- Main root trunk -->
    <path d="M90 60 C90 70, 80 80, 75 90 C70 100, 65 110, 55 115" stroke="#135540" stroke-width="2.5" fill="none" />
    
    <!-- Root branches - more organic, natural curves -->
    <path d="M90 60 C85 70, 75 75, 65 70 C55 65, 45 60, 35 65" stroke="#135540" stroke-width="1.8" fill="none" />
    <path d="M65 70 C62 75, 58 78, 53 75 C48 72, 43 68, 40 72" stroke="#135540" stroke-width="1.2" fill="none" />
    <path d="M53 75 C50 78, 48 82, 45 85" stroke="#135540" stroke-width="0.9" fill="none" />
    
    <path d="M90 60 C88 65, 85 70, 80 78 C75 85, 70 90, 72 95" stroke="#135540" stroke-width="1.8" fill="none" />
    <path d="M80 78 C78 83, 75 87, 70 90" stroke="#135540" stroke-width="1.2" fill="none" />
    
    <path d="M75 90 C80 95, 85 100, 80 105" stroke="#135540" stroke-width="1.2" fill="none" />
    
    <!-- Subtle green hints for living roots -->
    <circle cx="35" cy="65" r="2" fill="#14f1a7" opacity="0.7" />
    <circle cx="40" cy="72" r="1.5" fill="#14f1a7" opacity="0.7" />
    <circle cx="45" cy="85" r="1.5" fill="#14f1a7" opacity="0.7" />
    <circle cx="70" cy="90" r="1.5" fill="#14f1a7" opacity="0.7" />
    <circle cx="80" cy="105" r="1.5" fill="#14f1a7" opacity="0.7" />
    <circle cx="55" cy="115" r="2" fill="#14f1a7" opacity="0.7" />
    <circle cx="72" cy="95" r="1.5" fill="#14f1a7" opacity="0.7" />
    
    <!-- More realistic vegetation elements at the base of roots -->
    <!-- Real-looking fern leaf -->
    <path d="M35 65 C34 64, 32 62, 30 60 C29 59, 28 58, 29 57 C30 56, 31 56, 32 57 C33 58, 34 60, 35 62 C36 60, 37 58, 39 57 C40 56, 41 56, 42 57 C43 58, 42 59, 41 60 C39 62, 37 64, 35 65" fill="#0a923c" opacity="0.9" />
    
    <!-- Realistic small leaf -->
    <path d="M40 72 C38 70, 36 68, 35 67 C34 66, 34 65, 35 64 C36 63, 37 63, 38 64 C39 65, 40 67, 40 69 C41 67, 42 65, 43 64 C44 63, 45 63, 46 64 C47 65, 46 66, 45 67 C44 68, 42 70, 40 72" fill="#0b8535" opacity="0.9" />
    
    <!-- Natural looking moss -->
    <path d="M45 85 C43 84, 41 83, 40 82 C39 81, 39 80, 40 79 C41 78, 42 78, 43 79 C44 80, 45 82, 45 83 C46 82, 47 80, 48 79 C49 78, 50 78, 51 79 C52 80, 51 81, 50 82 C49 83, 47 84, 45 85" fill="#0c7a33" opacity="0.8" />
    
    <!-- More realistic small plant sprouts -->
    <path d="M55 115 C53 112, 51 109, 50 107 C49 105, 49 104, 50 103 C51 101, 53 102, 54 104 C54 105, 54 108, 55 110 C55 108, 56 105, 57 104 C58 102, 60 101, 61 103 C62 104, 61 105, 60 107 C59 109, 57 112, 55 115" fill="#0d7e30" opacity="0.85" />
    
    <!-- Realistic leaf textures with veins -->
    <path d="M32 57 L33 58 M39 57 L38 58" stroke="#085228" stroke-width="0.2" opacity="0.7" />
    <path d="M38 64 L39 65 M43 64 L42 65" stroke="#085228" stroke-width="0.2" opacity="0.7" />
    <path d="M43 79 L44 80 M48 79 L47 80" stroke="#085228" stroke-width="0.2" opacity="0.7" />
    <path d="M54 104 L54 106 M57 104 L57 106" stroke="#085228" stroke-width="0.2" opacity="0.7" />
  </g>
  
  <!-- Modern Network/Circuit System (Right Side) - more fine and high-tech -->
  <g>
    <!-- Main network trunk - thinner, more sleek -->
    <path d="M310 60 L350 60" stroke="#0095dd" stroke-width="1" fill="none" />
    
    <!-- Network branches - more technical, angular, and fine -->
    <path d="M310 60 L300 50 L285 50 L275 40" stroke="#0095dd" stroke-width="0.8" fill="none" />
    <path d="M285 50 L280 60 L265 60" stroke="#0095dd" stroke-width="0.6" fill="none" />
    <path d="M310 60 L300 70 L285 70 L275 80" stroke="#0095dd" stroke-width="0.8" fill="none" />
    <path d="M285 70 L280 80 L265 80" stroke="#0095dd" stroke-width="0.6" fill="none" />
    
    <!-- Extended network elements - more modern, complex, and fine -->
    <path d="M350 60 L365 45 L380 45 L390 38" stroke="#0095dd" stroke-width="0.7" fill="none" />
    <path d="M380 45 L385 40 L395 40" stroke="#0095dd" stroke-width="0.5" fill="none" />
    <path d="M365 45 L360 35 L375 35 L385 30" stroke="#0095dd" stroke-width="0.6" fill="none" />
    <path d="M375 35 L380 25 L390 25" stroke="#0095dd" stroke-width="0.4" fill="none" />
    
    <path d="M350 60 L365 75 L380 75 L390 82" stroke="#0095dd" stroke-width="0.7" fill="none" />
    <path d="M380 75 L385 80 L395 80" stroke="#0095dd" stroke-width="0.5" fill="none" />
    <path d="M365 75 L360 85 L375 85 L385 90" stroke="#0095dd" stroke-width="0.6" fill="none" />
    <path d="M375 85 L380 95 L390 95" stroke="#0095dd" stroke-width="0.4" fill="none" />
    
    <!-- Additional modern circuit elements -->
    <path d="M390 38 L395 35 L397 38 L395 41 Z" fill="#0095dd" opacity="0.9" />
    <path d="M385 30 L390 28 L392 31 L387 33 Z" fill="#0095dd" opacity="0.9" />
    <path d="M390 82 L395 85 L397 82 L395 79 Z" fill="#0095dd" opacity="0.9" />
    <path d="M385 90 L390 92 L392 89 L387 87 Z" fill="#0095dd" opacity="0.9" />
    
    <!-- Circuit nodes with more modern, minimal appearance -->
    <circle cx="275" cy="40" r="1.8" fill="#0095dd" />
    <circle cx="265" cy="60" r="1.8" fill="#0095dd" />
    <circle cx="275" cy="80" r="1.8" fill="#0095dd" />
    <circle cx="265" cy="80" r="1.8" fill="#0095dd" />
    
    <circle cx="390" cy="25" r="1.5" fill="#0095dd" />
    <circle cx="395" cy="40" r="1.5" fill="#0095dd" />
    <circle cx="395" cy="80" r="1.5" fill="#0095dd" />
    <circle cx="390" cy="95" r="1.5" fill="#0095dd" />
    
    <!-- Modern data flow animation -->
    <circle cx="365" cy="45" r="1" fill="#14f1a7">
      <animate attributeName="opacity" values="1;0.2;1" dur="2s" repeatCount="indefinite" />
    </circle>
    <circle cx="375" cy="35" r="1" fill="#14f1a7">
      <animate attributeName="opacity" values="0.2;1;0.2" dur="2s" repeatCount="indefinite" />
    </circle>
    <circle cx="365" cy="75" r="1" fill="#14f1a7">
      <animate attributeName="opacity" values="0.4;1;0.4" dur="2.5s" repeatCount="indefinite" />
    </circle>
    <circle cx="375" cy="85" r="1" fill="#14f1a7">
      <animate attributeName="opacity" values="1;0.3;1" dur="2.5s" repeatCount="indefinite" />
    </circle>
    
    <!-- High tech interface elements -->
    <line x1="385" y1="30" x2="390" y2="30" stroke="#14f1a7" stroke-width="0.3" opacity="0.8" />
    <line x1="385" y1="90" x2="390" y2="90" stroke="#14f1a7" stroke-width="0.3" opacity="0.8" />
    <line x1="390" y1="38" x2="390" y2="42" stroke="#14f1a7" stroke-width="0.3" opacity="0.8" />
    <line x1="390" y1="82" x2="390" y2="78" stroke="#14f1a7" stroke-width="0.3" opacity="0.8" />
  </g>
  
  <!-- Center Connection - Esquivant le texte "RooT:_" -->
  <g>
    <!-- Connection qui passe sous le texte -->
    <path d="M90 60 C100 40, 120 30, 130 30" stroke="#135540" stroke-width="1.5" fill="none" opacity="0.8" />
    <path d="M130 30 C140 30, 150 30, 170 30" stroke="#0b7252" stroke-width="1.3" fill="none" opacity="0.8" />
    <path d="M170 30 C190 30, 210 30, 230 30" stroke="#088a75" stroke-width="1.2" fill="none" opacity="0.8" />
    <path d="M230 30 C250 30, 270 30, 280 30" stroke="#0599a0" stroke-width="1.2" fill="none" opacity="0.8" />
    <path d="M280 30 C290 30, 300 40, 310 60" stroke="#0095dd" stroke-width="1" fill="none" opacity="0.8" />
    
    <!-- Transition nodes showing the blend -->
    <circle cx="170" cy="30" r="1.5" fill="#14f1a7" opacity="0.7" />
    <circle cx="200" cy="30" r="1.5" fill="#14f1a7" opacity="0.7" />
    <circle cx="230" cy="30" r="1.5" fill="#14f1a7" opacity="0.7" />
    <circle cx="260" cy="30" r="1.5" fill="#14f1a7" opacity="0.7" />
    <circle cx="290" cy="35" r="1.5" fill="#14f1a7" opacity="0.7" />
    
    <!-- Digital transition effect -->
    <rect x="235" y="28" width="1" height="4" fill="#14f1a7" opacity="0.5" />
    <rect x="245" y="28" width="1" height="4" fill="#14f1a7" opacity="0.5" />
    <rect x="255" y="28" width="1" height="4" fill="#14f1a7" opacity="0.5" />
    <rect x="265" y="28" width="1" height="4" fill="#14f1a7" opacity="0.5" />
    <rect x="275" y="28" width="1" height="4" fill="#14f1a7" opacity="0.5" />
    <rect x="285" y="32" width="1" height="4" fill="#14f1a7" opacity="0.5" />
  </g>
  
  <!-- Modern binary/data elements -->
  <g opacity="0.2">
    <text x="393" y="30" font-family="monospace" font-size="3" fill="#14f1a7">01</text>
    <text x="393" y="90" font-family="monospace" font-size="3" fill="#14f1a7">10</text>
    <text x="270" y="38" font-family="monospace" font-size="3" fill="#14f1a7">110</text>
    <text x="260" y="82" font-family="monospace" font-size="3" fill="#14f1a7">001</text>
  </g>
</svg>